<svg width="15" height="15" viewBox="0 0 15 15" fill="none" xmlns="http://www.w3.org/2000/svg">
<ellipse cx="7.23676" cy="4.54877" rx="2.98627" ry="2.98627" stroke="url(#paint0_linear_918_192)" stroke-width="1.5" stroke-linecap="round" stroke-linejoin="round"/>
<path fill-rule="evenodd" clip-rule="evenodd" d="M2.50001 11.6885C2.49921 11.4785 2.54616 11.2712 2.63731 11.0821C2.92335 10.51 3.72999 10.2068 4.39932 10.0695C4.88205 9.96646 5.37144 9.89764 5.86385 9.86353C6.77552 9.78345 7.69246 9.78345 8.60413 9.86353C9.0965 9.89804 9.58587 9.96685 10.0687 10.0695C10.738 10.2068 11.5446 10.4814 11.8307 11.0821C12.014 11.4676 12.014 11.9151 11.8307 12.3006C11.5446 12.9013 10.738 13.1759 10.0687 13.3075C9.5865 13.4147 9.09693 13.4855 8.60413 13.5191C7.8621 13.582 7.11662 13.5935 6.37301 13.5535C6.20138 13.5535 6.03548 13.5535 5.86385 13.5191C5.37289 13.4859 4.8852 13.4152 4.40504 13.3075C3.72999 13.1759 2.92907 12.9013 2.63731 12.3006C2.54662 12.1093 2.49972 11.9002 2.50001 11.6885Z" stroke="url(#paint1_linear_918_192)" stroke-width="1.5" stroke-linecap="round" stroke-linejoin="round"/>
<defs>
<linearGradient id="paint0_linear_918_192" x1="7.23676" y1="1.5625" x2="7.23676" y2="7.53504" gradientUnits="userSpaceOnUse">
<stop stop-color="#BB21E6"/>
<stop offset="1" stop-color="#661BF2" stop-opacity="0.83"/>
</linearGradient>
<linearGradient id="paint1_linear_918_192" x1="7.23408" y1="9.80347" x2="7.23408" y2="13.5768" gradientUnits="userSpaceOnUse">
<stop stop-color="#BB21E6"/>
<stop offset="1" stop-color="#661BF2" stop-opacity="0.83"/>
<symbol id="icon-admin" viewBox="0 0 32 32">
<path stroke-linejoin="round" stroke-linecap="round" stroke-miterlimit="4" stroke-width="3.2" d="M21.809 9.704c0 3.518-2.852 6.371-6.371 6.371s-6.371-2.852-6.371-6.371c0-3.518 2.852-6.371 6.371-6.371s6.371 2.852 6.371 6.371z"></path>
<path stroke-linejoin="round" stroke-linecap="round" stroke-miterlimit="4" stroke-width="3.2" d="M5.333 24.935c-0.002-0.448 0.098-0.89 0.293-1.294 0.61-1.22 2.331-1.867 3.759-2.16 1.030-0.22 2.074-0.367 3.124-0.439 1.945-0.171 3.901-0.171 5.846 0 1.050 0.074 2.094 0.22 3.124 0.439 1.428 0.293 3.149 0.879 3.759 2.16 0.391 0.822 0.391 1.777 0 2.599-0.61 1.282-2.331 1.867-3.759 2.148-1.029 0.229-2.073 0.38-3.124 0.451-1.583 0.134-3.173 0.159-4.76 0.073-0.366 0-0.72 0-1.086-0.073-1.047-0.071-2.088-0.222-3.112-0.451-1.44-0.281-3.149-0.867-3.771-2.148-0.193-0.408-0.294-0.854-0.293-1.306z"></path>
</symbol>
<symbol id="icon-btn-left" viewBox="0 0 32 32">
<path fill="none" stroke="#fff" style="stroke: var(--color1, #fff)" stroke-linejoin="round" stroke-linecap="round" stroke-miterlimit="4" stroke-width="2" d="M20.667 6.667l-9.333 9.333 9.333 9.333"></path>
</symbol>
<symbol id="icon-btn-right" viewBox="0 0 32 32">
<path fill="none" stroke="#fff" style="stroke: var(--color1, #fff)" stroke-linejoin="round" stroke-linecap="round" stroke-miterlimit="4" stroke-width="2" d="M11.333 6.667l9.333 9.333-9.333 9.333"></path>
</symbol>
<symbol id="icon-comment" viewBox="0 0 32 32">
<path d="M10.26 17.855c-0.86 0-1.558-0.698-1.558-1.558 0-0.857 0.698-1.556 1.558-1.556s1.558 0.698 1.558 1.556c0 0.86-0.698 1.558-1.558 1.558zM16.318 17.855c-0.86 0-1.558-0.698-1.558-1.558 0-0.857 0.698-1.556 1.558-1.556s1.558 0.698 1.558 1.556c0 0.86-0.698 1.558-1.558 1.558zM20.817 16.297c0 0.86 0.698 1.558 1.558 1.558s1.558-0.698 1.558-1.558c0-0.857-0.698-1.556-1.558-1.556s-1.558 0.698-1.558 1.556z"></path>
<path stroke-linejoin="round" stroke-linecap="round" stroke-miterlimit="4" stroke-width="2.4" d="M16.027 2.667c-7.747 0-13.36 6.328-13.36 13.353 0 2.243 0.653 4.552 1.8 6.662 0.213 0.349 0.24 0.788 0.093 1.203l-0.893 2.991c-0.2 0.721 0.413 1.254 1.093 1.040l2.693-0.8c0.733-0.24 1.307 0.065 1.987 0.481 1.947 1.147 4.373 1.736 6.56 1.736 6.613 0 13.333-5.114 13.333-13.353 0-7.105-5.733-13.313-13.307-13.313z"></path>
</symbol>
<symbol id="icon-eye" viewBox="0 0 32 32">
<path fill="none" stroke="#fff" style="stroke: var(--color1, #fff)" stroke-linejoin="round" stroke-linecap="round" stroke-miterlimit="4" stroke-width="1.92" d="M20.047 16.068c0 2.235-1.812 4.046-4.047 4.046s-4.046-1.811-4.046-4.046c0-2.236 1.811-4.047 4.046-4.047s4.047 1.811 4.047 4.047z"></path>
<path fill="none" stroke="#fff" style="stroke: var(--color1, #fff)" stroke-linejoin="round" stroke-linecap="round" stroke-miterlimit="4" stroke-width="1.92" d="M15.997 25.414c4.874 0 9.332-3.505 11.843-9.347-2.51-5.842-6.968-9.347-11.843-9.347h0.005c-4.874 0-9.332 3.505-11.843 9.347 2.51 5.842 6.968 9.347 11.843 9.347h-0.005z"></path>
</symbol>
<symbol id="icon-facebook" viewBox="0 0 32 32">
<path d="M23.417 1.34l-3.703-0.006c-4.16 0-6.849 2.833-6.849 7.219v3.328h-3.723c-0.322 0-0.582 0.268-0.582 0.598v4.823c0 0.331 0.261 0.598 0.582 0.598h3.723v12.169c0 0.33 0.261 0.598 0.582 0.598h4.858c0.322 0 0.582-0.268 0.582-0.598v-12.169h4.353c0.322 0 0.582-0.268 0.582-0.598l0.002-4.823c0-0.159-0.062-0.311-0.171-0.423s-0.258-0.175-0.412-0.175h-4.355v-2.822c0-1.356 0.315-2.045 2.034-2.045l2.494-0.001c0.322 0 0.582-0.268 0.582-0.598v-4.478c0-0.33-0.26-0.598-0.581-0.598z"></path>
</symbol>
<symbol id="icon-insta" viewBox="0 0 32 32">
<path d="M29.307 10.507c-0.062-1.417-0.292-2.391-0.62-3.235-0.339-0.896-0.859-1.698-1.542-2.365-0.667-0.677-1.474-1.203-2.36-1.537-0.849-0.328-1.818-0.557-3.235-0.62-1.427-0.068-1.881-0.083-5.501-0.083s-4.074 0.016-5.496 0.078c-1.417 0.062-2.391 0.292-3.235 0.62-0.896 0.339-1.698 0.86-2.365 1.542-0.677 0.667-1.203 1.474-1.537 2.36-0.328 0.849-0.557 1.818-0.62 3.235-0.068 1.427-0.083 1.881-0.083 5.501s0.016 4.074 0.078 5.496c0.062 1.417 0.292 2.391 0.62 3.235 0.339 0.896 0.865 1.698 1.542 2.365 0.667 0.677 1.474 1.203 2.36 1.537 0.849 0.328 1.818 0.557 3.235 0.62 1.422 0.063 1.875 0.078 5.496 0.078s4.074-0.015 5.496-0.078c1.417-0.063 2.391-0.292 3.235-0.62 1.792-0.693 3.209-2.11 3.902-3.902 0.328-0.849 0.557-1.818 0.62-3.235 0.063-1.422 0.078-1.875 0.078-5.496s-0.005-4.074-0.068-5.496zM26.906 21.394c-0.057 1.302-0.276 2.006-0.458 2.474-0.448 1.162-1.37 2.084-2.532 2.532-0.469 0.182-1.177 0.401-2.474 0.458-1.407 0.063-1.828 0.078-5.386 0.078s-3.985-0.015-5.387-0.078c-1.302-0.057-2.006-0.276-2.474-0.458-0.578-0.214-1.104-0.552-1.531-0.995-0.443-0.432-0.781-0.953-0.995-1.532-0.182-0.469-0.401-1.177-0.458-2.474-0.063-1.407-0.078-1.829-0.078-5.387s0.015-3.985 0.078-5.386c0.057-1.302 0.276-2.006 0.458-2.474 0.214-0.578 0.552-1.104 1-1.532 0.432-0.443 0.953-0.781 1.531-0.995 0.469-0.182 1.177-0.401 2.474-0.458 1.407-0.062 1.829-0.078 5.386-0.078 3.563 0 3.985 0.016 5.387 0.078 1.302 0.057 2.006 0.276 2.474 0.458 0.578 0.213 1.104 0.552 1.532 0.995 0.443 0.432 0.781 0.953 0.995 1.532 0.182 0.469 0.401 1.177 0.458 2.474 0.063 1.407 0.078 1.828 0.078 5.386s-0.016 3.975-0.078 5.381z"></path>
<path d="M16.049 9.152c-3.782 0-6.85 3.068-6.85 6.85s3.068 6.85 6.85 6.85c3.782 0 6.85-3.068 6.85-6.85s-3.068-6.85-6.85-6.85zM16.049 20.446c-2.453 0-4.444-1.99-4.444-4.444s1.99-4.444 4.444-4.444c2.454 0 4.444 1.99 4.444 4.444s-1.99 4.444-4.444 4.444z"></path>
<path d="M24.77 8.881c0 0.883-0.716 1.599-1.6 1.599s-1.599-0.716-1.599-1.599c0-0.883 0.716-1.599 1.599-1.599s1.6 0.716 1.6 1.599z"></path>
</symbol>
<symbol id="icon-plane" viewBox="0 0 32 32">
<path d="M28.94 6.122c0.415-1.874-1.327-3.565-3.215-3.019l-21.077 6.141c-1.959 0.737-2.26 3.466-0.425 4.596l8.634 5.315 5.194 8.605 0.117 0.178c1.218 1.706 3.914 1.293 4.529-0.775l6.193-20.853 0.049-0.188zM26.38 5.004c0.385-0.041 0.714 0.333 0.594 0.735l-6.194 20.853-0.041 0.102c-0.193 0.381-0.741 0.419-0.975 0.032l-4.917-8.145 7.003-7.048 0.097-0.112c0.289-0.392 0.255-0.948-0.101-1.302l-0.113-0.096c-0.392-0.289-0.948-0.255-1.302 0.101l-6.994 7.039-8.166-5.026-0.088-0.066c-0.317-0.289-0.21-0.847 0.224-0.973l20.972-6.093z"></path>
</symbol>
<symbol id="icon-play" viewBox="0 0 32 32">
<path fill="#fff" style="fill: var(--color1, #fff)" d="M29.584 14.605l-25.6-14.4c-0.496-0.278-1.101-0.272-1.59 0.013-0.493 0.288-0.794 0.813-0.794 1.382v28.8c0 0.57 0.301 1.094 0.794 1.382 0.25 0.144 0.528 0.218 0.806 0.218 0.269 0 0.541-0.067 0.784-0.205l25.6-14.4c0.502-0.285 0.816-0.816 0.816-1.395s-0.314-1.11-0.816-1.395z"></path>
</symbol>
<symbol id="icon-right-line" viewBox="0 0 32 32">
<path fill="#fff" style="fill: var(--color1, #fff)" d="M31.284 16.808c0.446-0.446 0.446-1.17 0-1.616l-7.273-7.273c-0.446-0.446-1.17-0.446-1.616 0s-0.446 1.17 0 1.616l6.465 6.465-6.465 6.465c-0.446 0.446-0.446 1.17 0 1.616s1.17 0.446 1.616 0l7.273-7.273zM0 17.143h30.476v-2.286h-30.476v2.286z"></path>
</symbol>
<symbol id="icon-setting" viewBox="0 0 32 32">
<path stroke-linejoin="round" stroke-linecap="round" stroke-miterlimit="4" stroke-width="4" d="M24 10.666c2.209 0 4-1.791 4-4s-1.791-4-4-4c-2.209 0-4 1.791-4 4s1.791 4 4 4z"></path>
<path stroke-linejoin="round" stroke-linecap="round" stroke-miterlimit="4" stroke-width="4" d="M8 20c2.209 0 4-1.791 4-4s-1.791-4-4-4c-2.209 0-4 1.791-4 4s1.791 4 4 4z"></path>
<path stroke-linejoin="round" stroke-linecap="round" stroke-miterlimit="4" stroke-width="4" d="M24 29.333c2.209 0 4-1.791 4-4s-1.791-4-4-4-4 1.791-4 4c0 2.209 1.791 4 4 4z"></path>
<path stroke-linejoin="round" stroke-linecap="round" stroke-miterlimit="4" stroke-width="4" d="M11.453 18.013l9.107 5.307"></path>
<path stroke-linejoin="round" stroke-linecap="round" stroke-miterlimit="4" stroke-width="4" d="M20.546 8.68l-9.093 5.307"></path>
</symbol>
<symbol id="icon-twitter" viewBox="0 0 32 32">
<path d="M30 7.697c-1.031 0.437-2.136 0.734-3.298 0.866 1.186-0.68 2.094-1.759 2.525-3.041-1.113 0.63-2.341 1.087-3.65 1.335-1.048-1.071-2.539-1.737-4.192-1.737-3.172 0-5.744 2.463-5.744 5.498 0 0.431 0.051 0.851 0.149 1.253-4.773-0.23-9.006-2.419-11.838-5.746-0.495 0.811-0.777 1.756-0.777 2.764 0 1.908 1.015 3.592 2.555 4.577-0.941-0.030-1.827-0.278-2.602-0.69v0.069c0 2.664 1.981 4.887 4.607 5.393-0.481 0.124-0.989 0.193-1.513 0.193-0.371 0-0.73-0.035-1.081-0.102 0.731 2.186 2.852 3.776 5.365 3.82-1.965 1.474-4.442 2.351-7.133 2.351-0.464 0-0.92-0.027-1.37-0.075 2.542 1.563 5.56 2.474 8.804 2.474 10.566 0 16.342-8.38 16.342-15.648l-0.019-0.712c1.129-0.771 2.105-1.739 2.873-2.841z"></path>
<symbol id="icon-arrow-down" viewBox="0 0 16 32">
<path d="M7.072 31.716c0.379 0.379 0.993 0.379 1.371 0l6.171-6.171c0.379-0.379 0.379-0.993 0-1.371s-0.993-0.379-1.371 0l-5.485 5.485-5.485-5.485c-0.379-0.379-0.993-0.379-1.371 0s-0.379 0.993 0 1.371l6.171 6.171zM6.788 0v31.030h1.939v-31.030h-1.939z"></path>
</symbol>
</linearGradient>
</defs>
</svg>
